<svg xmlns="http://www.w3.org/2000/svg" viewBox="0 0 1040 620" role="img" aria-labelledby="title desc">
  <title id="title">Hostwright system layer stack</title>
  <desc id="desc">Layered architecture: the hostwright CLI and planned daemon sit above the RuntimeAdapter boundary, which drives Apple&#x27;s container runtime and Linux VMs.</desc>
  
    <style><![CDATA[
      .label { font-family: Helvetica, Arial, sans-serif; fill: #202327; font-size: 18px; font-weight: 600; }
      .small { font-family: Helvetica, Arial, sans-serif; fill: #646973; font-size: 13px; font-weight: 400; }
      .mono { font-family: ui-monospace, SFMono-Regular, Menlo, Consolas, monospace; fill: #202327; font-size: 15px; }
      .tiny { font-family: Helvetica, Arial, sans-serif; fill: #646973; font-size: 11px; }
      .box { fill: #f3f1ec; stroke: #e4e1da; stroke-width: 1.5; }
      .box-ink { fill: #f3f1ec; stroke: #202327; stroke-width: 1.5; }
      .planned { stroke: #5a5f67; stroke-dasharray: 8 6; }
      .arrow { stroke: #202327; stroke-width: 1.7; fill: none; marker-end: url(#arrowInk); }
      .arrowAccent { stroke: #1f3a5f; stroke-width: 2; fill: none; marker-end: url(#arrowAccent); }
      .hair { stroke: #e4e1da; stroke-width: 1.5; }
    ]]></style>
    
  <defs>
    <marker id="arrowInk" markerWidth="10" markerHeight="10" refX="8" refY="5" orient="auto" markerUnits="strokeWidth">
      <path d="M 0 0 L 10 5 L 0 10 z" fill="#202327"/>
    </marker>
    <marker id="arrowAccent" markerWidth="10" markerHeight="10" refX="8" refY="5" orient="auto" markerUnits="strokeWidth">
      <path d="M 0 0 L 10 5 L 0 10 z" fill="#1f3a5f"/>
    </marker>
  </defs>
  <rect x="0" y="0" width="1040" height="620" fill="#faf9f6"/>
<rect x="150" y="40" width="740" height="62" rx="8" class="box" />
<text x="520.0" y="71.0" class="label" text-anchor="middle" dominant-baseline="middle">hostwright CLI</text>
<rect x="150" y="125" width="740" height="62" rx="8" class="box planned" />
<text x="520.0" y="151.0" class="label" text-anchor="middle" dominant-baseline="middle">hostwrightd</text>
<text x="520.0" y="176.0" class="tiny" text-anchor="middle" dominant-baseline="middle" fill="#5a5f67">Planned</text>
<rect x="150" y="210" width="740" height="84" rx="8" class="box" />
<rect x="198" y="228" width="205" height="48" rx="6" class="box-ink" />
<text x="300.5" y="250" class="label" text-anchor="middle" dominant-baseline="middle">Planner</text>
<rect x="428" y="228" width="205" height="48" rx="6" class="box-ink planned" />
<text x="530.5" y="250" class="label" text-anchor="middle" dominant-baseline="middle">Reconciler</text>
<text x="530.5" y="270" class="tiny" text-anchor="middle" dominant-baseline="middle" fill="#5a5f67">Planned</text>
<rect x="658" y="228" width="205" height="48" rx="6" class="box-ink" />
<text x="760.5" y="250" class="label" text-anchor="middle" dominant-baseline="middle">State Store</text>
<rect x="150" y="330" width="740" height="64" rx="8" fill="#1f3a5f" stroke="#1f3a5f" stroke-width="1.5"/>
<text x="520.0" y="362.0" class="label" text-anchor="middle" dominant-baseline="middle" style="fill:#faf9f6">RuntimeAdapter boundary</text>
<rect x="150" y="425" width="740" height="62" rx="8" class="box" />
<text x="520.0" y="456.0" class="label" text-anchor="middle" dominant-baseline="middle">Apple `container` CLI / Containerization</text>
<rect x="150" y="515" width="740" height="58" rx="8" class="box" />
<rect x="240" y="529" width="86" height="30" rx="4" class="box-ink" />
<text x="283" y="545" class="tiny" text-anchor="middle" dominant-baseline="middle">Linux VM</text>
<rect x="358" y="529" width="86" height="30" rx="4" class="box-ink" />
<text x="401" y="545" class="tiny" text-anchor="middle" dominant-baseline="middle">Linux VM</text>
<rect x="476" y="529" width="86" height="30" rx="4" class="box-ink" />
<text x="519" y="545" class="tiny" text-anchor="middle" dominant-baseline="middle">Linux VM</text>
<rect x="594" y="529" width="86" height="30" rx="4" class="box-ink" />
<text x="637" y="545" class="tiny" text-anchor="middle" dominant-baseline="middle">Linux VM</text>
<rect x="712" y="529" width="86" height="30" rx="4" class="box-ink" />
<text x="755" y="545" class="tiny" text-anchor="middle" dominant-baseline="middle">Linux VM</text>
<path d="M 520.0 108 L 520.0 117" class="arrow"/>
<path d="M 520.0 193 L 520.0 202" class="arrow"/>
<path d="M 520.0 300 L 520.0 322" class="arrowAccent"/>
<path d="M 520.0 400 L 520.0 417" class="arrow"/>
<path d="M 520.0 493 L 520.0 507" class="arrow"/>
<text x="170" y="595" class="small" text-anchor="start">
  <tspan x="170" dy="0">Apple container is the execution substrate. Hostwright owns declared state, planning, reconciliation, health, drift, and cleanup — not Apple&#x27;s runtime internals.</tspan>
</text>
</svg>
