<svg xmlns="http://www.w3.org/2000/svg" viewBox="0 0 720 640" role="img" aria-labelledby="title desc">
  <title id="title">Annotated manifest anatomy</title>
  <desc id="desc">Annotated hostwright.yaml showing project, services, image, ports, env, health, and restart fields.</desc>
  
    <style><![CDATA[
      .label { font-family: Helvetica, Arial, sans-serif; fill: #202327; font-size: 18px; font-weight: 600; }
      .small { font-family: Helvetica, Arial, sans-serif; fill: #646973; font-size: 13px; font-weight: 400; }
      .mono { font-family: ui-monospace, SFMono-Regular, Menlo, Consolas, monospace; fill: #202327; font-size: 15px; }
      .tiny { font-family: Helvetica, Arial, sans-serif; fill: #646973; font-size: 11px; }
      .box { fill: #f3f1ec; stroke: #e4e1da; stroke-width: 1.5; }
      .box-ink { fill: #f3f1ec; stroke: #202327; stroke-width: 1.5; }
      .planned { stroke: #5a5f67; stroke-dasharray: 8 6; }
      .arrow { stroke: #202327; stroke-width: 1.7; fill: none; marker-end: url(#arrowInk); }
      .arrowAccent { stroke: #1f3a5f; stroke-width: 2; fill: none; marker-end: url(#arrowAccent); }
      .hair { stroke: #e4e1da; stroke-width: 1.5; }
    ]]></style>
    
  <defs>
    <marker id="arrowInk" markerWidth="10" markerHeight="10" refX="8" refY="5" orient="auto" markerUnits="strokeWidth">
      <path d="M 0 0 L 10 5 L 0 10 z" fill="#202327"/>
    </marker>
    <marker id="arrowAccent" markerWidth="10" markerHeight="10" refX="8" refY="5" orient="auto" markerUnits="strokeWidth">
      <path d="M 0 0 L 10 5 L 0 10 z" fill="#1f3a5f"/>
    </marker>
  </defs>
  <rect x="0" y="0" width="720" height="640" fill="#faf9f6"/>
<rect x="35" y="40" width="410" height="560" rx="8" class="box-ink" />
<text x="62" y="72" class="mono">project: api-local</text>
<text x="62" y="102" class="mono">services:</text>
<text x="80" y="132" class="mono">api:</text>
<text x="98" y="162" class="mono">image: ghcr.io/example/api:latest</text>
<text x="98" y="192" class="mono">ports: [&quot;8080:8080&quot;]</text>
<text x="98" y="222" class="mono">env:</text>
<text x="116" y="252" class="mono">APP_ENV: development</text>
<text x="98" y="282" class="mono">health:</text>
<text x="116" y="312" class="mono">command: [&quot;curl&quot;, &quot;-f&quot;,</text>
<text x="134" y="342" class="mono">&quot;http://localhost:8080/health&quot;]</text>
<text x="116" y="372" class="mono">interval: 10s</text>
<text x="98" y="402" class="mono">restart:</text>
<text x="116" y="432" class="mono">policy: on-failure</text>
<text x="80" y="462" class="mono">redis:</text>
<text x="98" y="492" class="mono">image: redis:7</text>
<text x="98" y="522" class="mono">ports: [&quot;6379:6379&quot;]</text>
<path d="M 445 72 L 495 70" class="arrowAccent"/>
<rect x="500" y="45" width="175" height="50" rx="6" class="box" />
<text x="512" y="65" class="small" text-anchor="start">project</text>
<text x="512" y="84" class="tiny" text-anchor="start">stack name</text>
<path d="M 445 102 L 495 120" class="arrowAccent"/>
<rect x="500" y="95" width="175" height="50" rx="6" class="box" />
<text x="512" y="115" class="small" text-anchor="start">services</text>
<text x="512" y="134" class="tiny" text-anchor="start">set you want to exist</text>
<path d="M 445 162 L 495 170" class="arrowAccent"/>
<rect x="500" y="145" width="175" height="50" rx="6" class="box" />
<text x="512" y="165" class="small" text-anchor="start">image</text>
<text x="512" y="184" class="tiny" text-anchor="start">OCI image reference</text>
<path d="M 445 192 L 495 220" class="arrowAccent"/>
<rect x="500" y="195" width="175" height="50" rx="6" class="box" />
<text x="512" y="215" class="small" text-anchor="start">ports</text>
<text x="512" y="234" class="tiny" text-anchor="start">host/container port mapping</text>
<path d="M 445 222 L 495 270" class="arrowAccent"/>
<rect x="500" y="245" width="175" height="50" rx="6" class="box" />
<text x="512" y="265" class="small" text-anchor="start">env</text>
<text x="512" y="284" class="tiny" text-anchor="start">environment values</text>
<path d="M 445 282 L 495 330" class="arrowAccent"/>
<rect x="500" y="305" width="175" height="50" rx="6" class="box" />
<text x="512" y="325" class="small" text-anchor="start">health</text>
<text x="512" y="344" class="tiny" text-anchor="start">probe policy</text>
<path d="M 445 402 L 495 390" class="arrowAccent"/>
<rect x="500" y="365" width="175" height="50" rx="6" class="box" />
<text x="512" y="385" class="small" text-anchor="start">restart.policy</text>
<text x="512" y="404" class="tiny" text-anchor="start">restart behavior</text>
</svg>
